<svg xmlns="http://www.w3.org/2000/svg" xmlns:xlink="http://www.w3.org/1999/xlink" version="1.1" width="1024" height="768" viewBox="0 0 1024 768" xml:space="preserve">
<desc>Created with Fabric.js 6.7.1</desc>
<defs>
</defs>

<g transform="matrix(1.1787 0 0 1.1787 512 384)" id="glyphGroup_textPair_1769983599200_0.888278984716796">
<g style="">
		<g transform="matrix(1 0 0 1 -258.876 0)">
<g style="">
		<g transform="matrix(1 0 0 1 0 0)">
<path style="stroke: none; stroke-width: 1; stroke-dasharray: none; stroke-linecap: butt; stroke-dashoffset: 0; stroke-linejoin: miter; stroke-miterlimit: 4; fill: rgb(240,238,232); fill-rule: nonzero; opacity: 1;" transform=" translate(-100, -95.9747)" d="M 112.276 70.7747 L 112.276 89.7107 L 99.46 89.7107 L 93.268 101.5187 L 112.276 101.5187 L 112.276 121.1747 L 126.532 121.1747 L 126.532 70.7747 Z M 125.02 119.6627 L 113.788 119.6627 L 113.788 100.0067 L 95.788 100.0067 L 100.324 91.2227 L 113.788 91.2227 L 113.788 72.2867 L 125.02 72.2867 Z M 73.468 121.1747 L 87.724 121.1747 L 87.724 70.7747 L 73.468 70.7747 Z M 74.98 72.2867 L 86.212 72.2867 L 86.212 119.6627 L 74.98 119.6627 Z" stroke-linecap="round"/>
</g>
</g>
</g>
		<g transform="matrix(1 0 0 1 -196.848 0)">
<g style="">
		<g transform="matrix(1 0 0 1 0 0)">
<path style="stroke: none; stroke-width: 1; stroke-dasharray: none; stroke-linecap: butt; stroke-dashoffset: 0; stroke-linejoin: miter; stroke-miterlimit: 4; fill: rgb(240,238,232); fill-rule: nonzero; opacity: 1;" transform=" translate(-100, -95.9747)" d="M 124.336 82.5107 C 121.96 78.5507 118.648 75.3827 114.4 73.1507 C 110.152 70.9187 105.328 69.7667 100 69.7667 C 94.672 69.7667 89.92 70.9187 85.6 73.1507 C 81.352 75.3827 78.04 78.5507 75.592 82.5107 C 73.216 86.4707 71.992 91.0067 71.992 95.9747 C 71.992 100.9427 73.216 105.4787 75.592 109.4387 C 78.04 113.3987 81.352 116.5667 85.6 118.7987 C 89.92 121.0307 94.672 122.1827 100 122.1827 C 105.328 122.1827 110.152 121.0307 114.328 118.7987 C 118.576 116.5667 121.96 113.3987 124.336 109.4387 C 126.784 105.4787 128.008 100.9427 128.008 95.9747 C 128.008 91.0067 126.784 86.4707 124.336 82.5107 Z M 123.112 108.6467 C 120.808 112.3907 117.64 115.3427 113.68 117.4307 C 109.648 119.5907 105.04 120.6707 100 120.6707 C 94.96 120.6707 90.352 119.5907 86.32 117.4307 C 82.36 115.3427 79.192 112.3907 76.888 108.6467 C 74.656 104.9027 73.504 100.6547 73.504 95.9747 C 73.504 91.2947 74.656 87.0467 76.888 83.3027 C 79.192 79.5587 82.36 76.6067 86.32 74.5187 C 90.352 72.3587 94.96 71.2787 100 71.2787 C 105.04 71.2787 109.648 72.3587 113.68 74.5187 C 117.64 76.6067 120.808 79.5587 123.112 83.3027 C 125.344 87.0467 126.496 91.2947 126.496 95.9747 C 126.496 100.6547 125.344 104.9027 123.112 108.6467 Z M 107.704 82.0787 C 105.4 80.7107 102.808 80.0627 100 80.0627 C 97.192 80.0627 94.6 80.7107 92.296 82.0787 C 90.064 83.3747 88.192 85.3187 86.896 87.6947 C 85.528 90.1427 84.88 92.8787 84.88 95.9747 C 84.88 99.0707 85.528 101.8067 86.896 104.2547 C 88.192 106.6307 90.064 108.5747 92.296 109.8707 C 94.6 111.2387 97.192 111.8867 100 111.8867 C 102.808 111.8867 105.4 111.2387 107.704 109.8707 C 109.936 108.5747 111.808 106.6307 113.104 104.2547 C 114.472 101.8067 115.12 99.0707 115.12 95.9747 C 115.12 92.8787 114.472 90.1427 113.104 87.6947 C 111.808 85.3187 109.936 83.3747 107.704 82.0787 Z M 111.808 103.5347 C 110.584 105.6947 109 107.3507 106.912 108.5747 C 104.824 109.7987 102.52 110.3747 100 110.3747 C 97.48 110.3747 95.176 109.7987 93.088 108.5747 C 91 107.3507 89.416 105.6947 88.192 103.5347 C 86.968 101.3027 86.392 98.7827 86.392 95.9747 C 86.392 93.1667 86.968 90.6467 88.192 88.4867 C 89.416 86.2547 91 84.5987 93.088 83.3747 C 95.176 82.1507 97.48 81.5747 100 81.5747 C 102.52 81.5747 104.824 82.1507 106.912 83.3747 C 109 84.5987 110.584 86.2547 111.808 88.4867 C 113.032 90.6467 113.608 93.1667 113.608 95.9747 C 113.608 98.7827 113.032 101.3027 111.808 103.5347 Z" stroke-linecap="round"/>
</g>
</g>
</g>
		<g transform="matrix(1 0 0 1 -143.1 0)">
<g style="">
		<g transform="matrix(1 0 0 1 0 0)">
<path style="stroke: none; stroke-width: 1; stroke-dasharray: none; stroke-linecap: butt; stroke-dashoffset: 0; stroke-linejoin: miter; stroke-miterlimit: 4; fill: rgb(240,238,232); fill-rule: nonzero; opacity: 1;" transform=" translate(-100, -95.9747)" d="M 88.372 98.9987 C 90.892 99.9347 94.06 100.7987 97.876 101.5907 C 91.036 97.6307 90.748 93.9587 90.748 89.7107 C 90.748 84.7427 93.268 80.9267 99.964 80.9267 C 100.396 80.8547 100.828 80.8547 101.332 80.8547 C 105.868 80.8547 110.476 82.1507 115.3 84.7427 L 119.692 74.1587 C 117.244 72.7187 114.436 71.6387 111.196 70.9187 C 107.956 70.1267 104.716 69.7667 101.404 69.7667 C 96.58 69.7667 92.476 70.4867 89.092 71.9267 C 85.78 73.3667 83.26 75.3107 81.604 77.8307 C 79.948 80.2787 79.084 83.0147 79.084 86.1107 C 79.084 89.6387 80.02 92.3747 81.82 94.4627 C 83.62 96.5507 85.852 98.0627 88.372 98.9987 Z M 82.828 78.6227 C 84.34 76.3907 86.644 74.6627 89.74 73.2947 C 92.836 71.9987 96.796 71.2787 101.404 71.2787 C 104.572 71.2787 107.74 71.6387 110.836 72.3587 C 113.428 72.9347 115.732 73.7987 117.748 74.8067 L 114.508 82.6547 C 110.044 80.4227 105.58 79.3427 101.332 79.3427 C 100.972 79.3427 100.612 79.3427 100.252 79.4147 L 99.964 79.4147 C 93.124 79.4147 89.236 83.1587 89.236 89.7107 C 89.236 92.8787 89.452 95.6867 91.684 98.4947 C 90.676 98.1347 89.74 97.8467 88.876 97.5587 C 86.572 96.6947 84.628 95.3267 82.972 93.4547 C 81.388 91.7267 80.596 89.2067 80.596 86.1107 C 80.596 83.3027 81.316 80.8547 82.828 78.6227 Z M 118.972 97.6307 C 117.172 95.5427 115.012 94.0307 112.42 93.0947 C 109.9 92.1587 106.732 91.2947 102.916 90.5027 C 102.772 90.4307 102.556 90.4307 102.412 90.3587 L 102.412 90.4307 C 109.108 94.6067 110.116 98.0627 110.116 102.3107 C 110.116 106.8467 108.964 110.4467 101.62 111.0227 L 101.404 111.0227 C 100.756 111.0947 100.18 111.0947 99.532 111.0947 C 96.652 111.0947 93.7 110.6627 90.748 109.7267 C 87.796 108.7907 85.132 107.6387 82.9 106.1267 L 78.22 116.6387 C 80.596 118.2947 83.764 119.6627 87.58 120.6707 C 91.396 121.6787 95.356 122.1827 99.46 122.1827 C 104.284 122.1827 108.316 121.4627 111.7 119.9507 C 115.084 118.5107 117.604 116.5667 119.26 114.1187 C 120.916 111.6707 121.78 108.9347 121.78 105.9107 C 121.78 102.3827 120.844 99.6467 118.972 97.5587 Z M 118.036 113.2547 C 116.524 115.4867 114.148 117.2867 111.124 118.5827 C 107.956 119.9507 103.996 120.6707 99.46 120.6707 C 95.5 120.6707 91.684 120.1667 87.94 119.2307 C 84.844 118.3667 82.252 117.3587 80.092 116.0627 L 83.548 108.2867 C 85.564 109.4387 87.868 110.4467 90.316 111.1667 C 93.412 112.1027 96.508 112.6067 99.532 112.6067 C 100.18 112.6067 100.828 112.6067 101.476 112.5347 L 101.692 112.5347 L 101.764 112.5347 C 110.476 111.8867 111.628 106.9907 111.628 102.3107 C 111.628 99.0707 111.052 96.2627 108.532 93.4547 C 109.828 93.8147 110.908 94.1747 111.916 94.5347 C 114.22 95.3987 116.236 96.7667 117.892 98.6387 C 119.476 100.3667 120.268 102.7427 120.268 105.9107 C 120.268 108.6467 119.548 111.0227 118.036 113.2547 Z" stroke-linecap="round"/>
</g>
</g>
</g>
		<g transform="matrix(1 0 0 1 -96.516 0)">
<g style="">
		<g transform="matrix(1 0 0 1 0 0)">
<path style="stroke: none; stroke-width: 1; stroke-dasharray: none; stroke-linecap: butt; stroke-dashoffset: 0; stroke-linejoin: miter; stroke-miterlimit: 4; fill: rgb(240,238,232); fill-rule: nonzero; opacity: 1;" transform=" translate(-100, -95.9747)" d="M 88.372 98.9987 C 90.892 99.9347 94.06 100.7987 97.876 101.5907 C 91.036 97.6307 90.748 93.9587 90.748 89.7107 C 90.748 84.7427 93.268 80.9267 99.964 80.9267 C 100.396 80.8547 100.828 80.8547 101.332 80.8547 C 105.868 80.8547 110.476 82.1507 115.3 84.7427 L 119.692 74.1587 C 117.244 72.7187 114.436 71.6387 111.196 70.9187 C 107.956 70.1267 104.716 69.7667 101.404 69.7667 C 96.58 69.7667 92.476 70.4867 89.092 71.9267 C 85.78 73.3667 83.26 75.3107 81.604 77.8307 C 79.948 80.2787 79.084 83.0147 79.084 86.1107 C 79.084 89.6387 80.02 92.3747 81.82 94.4627 C 83.62 96.5507 85.852 98.0627 88.372 98.9987 Z M 82.828 78.6227 C 84.34 76.3907 86.644 74.6627 89.74 73.2947 C 92.836 71.9987 96.796 71.2787 101.404 71.2787 C 104.572 71.2787 107.74 71.6387 110.836 72.3587 C 113.428 72.9347 115.732 73.7987 117.748 74.8067 L 114.508 82.6547 C 110.044 80.4227 105.58 79.3427 101.332 79.3427 C 100.972 79.3427 100.612 79.3427 100.252 79.4147 L 99.964 79.4147 C 93.124 79.4147 89.236 83.1587 89.236 89.7107 C 89.236 92.8787 89.452 95.6867 91.684 98.4947 C 90.676 98.1347 89.74 97.8467 88.876 97.5587 C 86.572 96.6947 84.628 95.3267 82.972 93.4547 C 81.388 91.7267 80.596 89.2067 80.596 86.1107 C 80.596 83.3027 81.316 80.8547 82.828 78.6227 Z M 118.972 97.6307 C 117.172 95.5427 115.012 94.0307 112.42 93.0947 C 109.9 92.1587 106.732 91.2947 102.916 90.5027 C 102.772 90.4307 102.556 90.4307 102.412 90.3587 L 102.412 90.4307 C 109.108 94.6067 110.116 98.0627 110.116 102.3107 C 110.116 106.8467 108.964 110.4467 101.62 111.0227 L 101.404 111.0227 C 100.756 111.0947 100.18 111.0947 99.532 111.0947 C 96.652 111.0947 93.7 110.6627 90.748 109.7267 C 87.796 108.7907 85.132 107.6387 82.9 106.1267 L 78.22 116.6387 C 80.596 118.2947 83.764 119.6627 87.58 120.6707 C 91.396 121.6787 95.356 122.1827 99.46 122.1827 C 104.284 122.1827 108.316 121.4627 111.7 119.9507 C 115.084 118.5107 117.604 116.5667 119.26 114.1187 C 120.916 111.6707 121.78 108.9347 121.78 105.9107 C 121.78 102.3827 120.844 99.6467 118.972 97.5587 Z M 118.036 113.2547 C 116.524 115.4867 114.148 117.2867 111.124 118.5827 C 107.956 119.9507 103.996 120.6707 99.46 120.6707 C 95.5 120.6707 91.684 120.1667 87.94 119.2307 C 84.844 118.3667 82.252 117.3587 80.092 116.0627 L 83.548 108.2867 C 85.564 109.4387 87.868 110.4467 90.316 111.1667 C 93.412 112.1027 96.508 112.6067 99.532 112.6067 C 100.18 112.6067 100.828 112.6067 101.476 112.5347 L 101.692 112.5347 L 101.764 112.5347 C 110.476 111.8867 111.628 106.9907 111.628 102.3107 C 111.628 99.0707 111.052 96.2627 108.532 93.4547 C 109.828 93.8147 110.908 94.1747 111.916 94.5347 C 114.22 95.3987 116.236 96.7667 117.892 98.6387 C 119.476 100.3667 120.268 102.7427 120.268 105.9107 C 120.268 108.6467 119.548 111.0227 118.036 113.2547 Z" stroke-linecap="round"/>
</g>
</g>
</g>
		<g transform="matrix(1 0 0 1 -47.484 0)">
<g style="">
		<g transform="matrix(1 0 0 1 0 0)">
<path style="stroke: none; stroke-width: 1; stroke-dasharray: none; stroke-linecap: butt; stroke-dashoffset: 0; stroke-linejoin: miter; stroke-miterlimit: 4; fill: rgb(240,238,232); fill-rule: nonzero; opacity: 1;" transform=" translate(-101.188, -95.9747)" d="M 81.208 70.7747 L 81.208 81.7907 L 116.056 81.7907 L 121.168 70.7747 Z M 82.72 72.2867 L 118.792 72.2867 L 115.048 80.2787 L 82.72 80.2787 Z M 110.872 90.2867 L 81.208 90.2867 L 81.208 100.9427 L 110.872 100.9427 Z M 109.36 99.4307 L 82.72 99.4307 L 82.72 91.7987 L 109.36 91.7987 Z M 81.208 110.1587 L 81.208 121.1747 L 121.168 121.1747 L 116.056 110.1587 Z M 82.72 119.6627 L 82.72 111.6707 L 115.048 111.6707 L 118.792 119.6627 Z" stroke-linecap="round"/>
</g>
</g>
</g>
		<g transform="matrix(1 0 0 1 -11.952 0)">
<g style="">
		<g transform="matrix(1 0 0 1 0 0)">
<path style="stroke: none; stroke-width: 1; stroke-dasharray: none; stroke-linecap: butt; stroke-dashoffset: 0; stroke-linejoin: miter; stroke-miterlimit: 4; fill: rgb(240,238,232); fill-rule: nonzero; opacity: 1;" transform=" translate(-100, -95.9747)" d="M 92.872 70.7747 L 92.872 80.4227 L 107.128 85.5347 L 107.128 70.7747 Z M 105.616 83.4467 L 94.384 79.3427 L 94.384 72.2867 L 105.616 72.2867 Z M 92.872 121.1747 L 107.128 121.1747 L 107.128 92.8787 L 92.872 92.8787 Z M 94.384 94.3907 L 105.616 94.3907 L 105.616 119.6627 L 94.384 119.6627 Z" stroke-linecap="round"/>
</g>
</g>
</g>
		<g transform="matrix(1 0 0 1 30.96 0)">
<g style="">
		<g transform="matrix(1 0 0 1 0 0)">
<path style="stroke: none; stroke-width: 1; stroke-dasharray: none; stroke-linecap: butt; stroke-dashoffset: 0; stroke-linejoin: miter; stroke-miterlimit: 4; fill: rgb(240,238,232); fill-rule: nonzero; opacity: 1;" transform=" translate(-100, -95.9747)" d="M 111.736 70.7747 L 111.736 96.7667 L 92.08 70.7747 L 74.296 70.7747 L 111.736 121.1747 L 125.704 121.1747 L 125.704 70.7747 Z M 124.192 115.2707 L 124.192 119.6627 L 112.456 119.6627 L 77.32 72.2867 L 91.36 72.2867 L 110.512 97.7027 L 113.248 101.3027 L 113.248 72.2867 L 124.192 72.2867 Z M 74.296 121.1747 L 88.264 121.1747 L 88.264 98.2787 L 74.296 107.6387 Z M 75.808 108.4307 L 86.752 101.0867 L 86.752 119.6627 L 75.808 119.6627 Z" stroke-linecap="round"/>
</g>
</g>
</g>
		<g transform="matrix(1 0 0 1 88.848 0)">
<g style="">
		<g transform="matrix(1 0 0 1 0 0)">
<path style="stroke: none; stroke-width: 1; stroke-dasharray: none; stroke-linecap: butt; stroke-dashoffset: 0; stroke-linejoin: miter; stroke-miterlimit: 4; fill: rgb(100,136,55); fill-rule: nonzero; opacity: 1;" transform=" translate(-98.704, -95.9747)" d="M 102.448 110.3747 C 99.712 110.3747 97.264 109.7987 95.176 108.5747 C 93.016 107.3507 91.36 105.6947 90.208 103.5347 C 88.984 101.3027 88.408 98.7827 88.408 95.9747 C 88.408 93.1667 88.984 90.6467 90.208 88.4867 C 91.36 86.2547 93.016 84.5987 95.176 83.3747 C 97.264 82.1507 99.712 81.5747 102.448 81.5747 L 114.328 81.5747 L 123.4 69.7667 L 101.728 69.7667 C 96.472 69.7667 91.72 70.9187 87.544 73.0787 C 83.296 75.3107 79.984 78.4787 77.608 82.4387 C 75.232 86.3987 74.008 90.9347 74.008 95.9747 C 74.008 101.0147 75.232 105.5507 77.608 109.5107 C 79.984 113.4707 83.296 116.5667 87.544 118.7987 C 91.72 121.0307 96.472 122.1827 101.728 122.1827 L 123.4 122.1827 L 114.328 110.3747 Z M 101.728 120.6707 C 96.688 120.6707 92.152 119.5907 88.192 117.5027 C 84.304 115.4147 81.136 112.4627 78.904 108.7187 C 76.672 104.9747 75.52 100.7267 75.52 95.9747 C 75.52 91.2227 76.672 86.9747 78.904 83.2307 C 81.136 79.4867 84.304 76.5347 88.192 74.4467 C 92.152 72.3587 96.688 71.2787 101.728 71.2787 L 120.304 71.2787 L 113.608 80.0627 L 102.448 80.0627 C 99.496 80.0627 96.76 80.7107 94.384 82.0787 C 92.008 83.3747 90.136 85.3187 88.84 87.7667 C 87.544 90.1427 86.896 92.8787 86.896 95.9747 C 86.896 99.0707 87.544 101.8067 88.84 104.1827 C 90.136 106.6307 92.008 108.5747 94.384 109.8707 C 96.76 111.2387 99.496 111.8867 102.448 111.8867 L 113.608 111.8867 L 120.304 120.6707 Z" stroke-linecap="round"/>
</g>
</g>
</g>
		<g transform="matrix(1 0 0 1 149.04 0)">
<g style="">
		<g transform="matrix(1 0 0 1 0 0)">
<path style="stroke: none; stroke-width: 1; stroke-dasharray: none; stroke-linecap: butt; stroke-dashoffset: 0; stroke-linejoin: miter; stroke-miterlimit: 4; fill: rgb(100,136,55); fill-rule: nonzero; opacity: 1;" transform=" translate(-100, -95.9747)" d="M 124.336 82.5107 C 121.96 78.5507 118.648 75.3827 114.4 73.1507 C 110.152 70.9187 105.328 69.7667 100 69.7667 C 94.672 69.7667 89.92 70.9187 85.6 73.1507 C 81.352 75.3827 78.04 78.5507 75.592 82.5107 C 73.216 86.4707 71.992 91.0067 71.992 95.9747 C 71.992 100.9427 73.216 105.4787 75.592 109.4387 C 78.04 113.3987 81.352 116.5667 85.6 118.7987 C 89.92 121.0307 94.672 122.1827 100 122.1827 C 105.328 122.1827 110.152 121.0307 114.328 118.7987 C 118.576 116.5667 121.96 113.3987 124.336 109.4387 C 126.784 105.4787 128.008 100.9427 128.008 95.9747 C 128.008 91.0067 126.784 86.4707 124.336 82.5107 Z M 123.112 108.6467 C 120.808 112.3907 117.64 115.3427 113.68 117.4307 C 109.648 119.5907 105.04 120.6707 100 120.6707 C 94.96 120.6707 90.352 119.5907 86.32 117.4307 C 82.36 115.3427 79.192 112.3907 76.888 108.6467 C 74.656 104.9027 73.504 100.6547 73.504 95.9747 C 73.504 91.2947 74.656 87.0467 76.888 83.3027 C 79.192 79.5587 82.36 76.6067 86.32 74.5187 C 90.352 72.3587 94.96 71.2787 100 71.2787 C 105.04 71.2787 109.648 72.3587 113.68 74.5187 C 117.64 76.6067 120.808 79.5587 123.112 83.3027 C 125.344 87.0467 126.496 91.2947 126.496 95.9747 C 126.496 100.6547 125.344 104.9027 123.112 108.6467 Z M 107.704 82.0787 C 105.4 80.7107 102.808 80.0627 100 80.0627 C 97.192 80.0627 94.6 80.7107 92.296 82.0787 C 90.064 83.3747 88.192 85.3187 86.896 87.6947 C 85.528 90.1427 84.88 92.8787 84.88 95.9747 C 84.88 99.0707 85.528 101.8067 86.896 104.2547 C 88.192 106.6307 90.064 108.5747 92.296 109.8707 C 94.6 111.2387 97.192 111.8867 100 111.8867 C 102.808 111.8867 105.4 111.2387 107.704 109.8707 C 109.936 108.5747 111.808 106.6307 113.104 104.2547 C 114.472 101.8067 115.12 99.0707 115.12 95.9747 C 115.12 92.8787 114.472 90.1427 113.104 87.6947 C 111.808 85.3187 109.936 83.3747 107.704 82.0787 Z M 111.808 103.5347 C 110.584 105.6947 109 107.3507 106.912 108.5747 C 104.824 109.7987 102.52 110.3747 100 110.3747 C 97.48 110.3747 95.176 109.7987 93.088 108.5747 C 91 107.3507 89.416 105.6947 88.192 103.5347 C 86.968 101.3027 86.392 98.7827 86.392 95.9747 C 86.392 93.1667 86.968 90.6467 88.192 88.4867 C 89.416 86.2547 91 84.5987 93.088 83.3747 C 95.176 82.1507 97.48 81.5747 100 81.5747 C 102.52 81.5747 104.824 82.1507 106.912 83.3747 C 109 84.5987 110.584 86.2547 111.808 88.4867 C 113.032 90.6467 113.608 93.1667 113.608 95.9747 C 113.608 98.7827 113.032 101.3027 111.808 103.5347 Z" stroke-linecap="round"/>
</g>
</g>
</g>
		<g transform="matrix(1 0 0 1 211.248 0)">
<g style="">
		<g transform="matrix(1 0 0 1 0 0)">
<path style="stroke: none; stroke-width: 1; stroke-dasharray: none; stroke-linecap: butt; stroke-dashoffset: 0; stroke-linejoin: miter; stroke-miterlimit: 4; fill: rgb(100,136,55); fill-rule: nonzero; opacity: 1;" transform=" translate(-101.656, -95.9747)" d="M 124.12 82.6547 C 121.744 78.8387 118.432 75.9587 114.184 73.8707 C 109.936 71.7827 105.04 70.7747 99.496 70.7747 L 75.664 70.7747 L 75.664 95.5427 L 89.92 95.5427 L 89.92 82.1507 L 98.92 82.1507 C 103.24 82.1507 106.696 83.3747 109.288 85.8227 C 111.952 88.2707 113.248 91.6547 113.248 95.9747 C 113.248 100.2947 111.952 103.6787 109.288 106.1267 C 106.696 108.5747 103.24 109.7987 98.92 109.7987 L 80.776 109.7987 L 75.664 121.1747 L 99.496 121.1747 C 105.04 121.1747 109.936 120.1667 114.184 118.0787 C 118.432 115.9907 121.744 113.1107 124.12 109.2947 C 126.496 105.4787 127.648 101.0867 127.648 95.9747 C 127.648 90.8627 126.496 86.4707 124.12 82.6547 Z M 122.824 108.5027 C 120.664 112.0307 117.496 114.7667 113.536 116.7107 C 109.504 118.6547 104.752 119.6627 99.496 119.6627 L 77.968 119.6627 L 81.784 111.3107 L 98.92 111.3107 C 103.6 111.3107 107.488 109.9427 110.368 107.2067 C 113.248 104.4707 114.76 100.7267 114.76 95.9747 C 114.76 91.2227 113.248 87.4787 110.368 84.7427 C 107.488 82.0067 103.6 80.6387 98.92 80.6387 L 88.408 80.6387 L 88.408 94.0307 L 77.176 94.0307 L 77.176 72.2867 L 99.496 72.2867 C 104.752 72.2867 109.504 73.2947 113.536 75.2387 C 117.496 77.1827 120.664 79.9187 122.824 83.4467 C 125.056 86.9747 126.136 91.2227 126.136 95.9747 C 126.136 100.7267 125.056 104.9747 122.824 108.5027 Z" stroke-linecap="round"/>
</g>
</g>
</g>
		<g transform="matrix(1 0 0 1 265.428 0)">
<g style="">
		<g transform="matrix(1 0 0 1 0 0)">
<path style="stroke: none; stroke-width: 1; stroke-dasharray: none; stroke-linecap: butt; stroke-dashoffset: 0; stroke-linejoin: miter; stroke-miterlimit: 4; fill: rgb(100,136,55); fill-rule: nonzero; opacity: 1;" transform=" translate(-101.188, -95.9747)" d="M 121.168 100.9427 L 121.168 90.2867 L 99.856 90.2867 L 99.856 100.9427 Z M 81.208 70.7747 L 81.208 90.2867 L 93.448 90.2867 L 93.448 81.7907 L 121.168 81.7907 L 121.168 70.7747 Z M 93.448 100.9427 L 81.208 100.9427 L 81.208 121.1747 L 121.168 121.1747 L 121.168 110.1587 L 93.448 110.1587 Z" stroke-linecap="round"/>
</g>
</g>
</g>
</g>
</g>
<g transform="matrix(1.1787 0 0 1.1787 512 384)" style="" id="iText_textPair_1769983599200_0.888278984716796">
		<text xml:space="preserve" font-family="Brandmark-Montserrat-Bold" font-size="72" font-style="normal" font-weight="800" style="stroke: none; stroke-width: 1; stroke-dasharray: none; stroke-linecap: butt; stroke-dashoffset: 0; stroke-linejoin: miter; stroke-miterlimit: 4; fill: rgb(255,255,255); fill-opacity: 0; fill-rule: nonzero; opacity: 1; text-decoration-thickness: 7.858%; white-space: pre;"><tspan x="-289.62" y="22.6181"></tspan></text>
</g>
</svg>